<svg version="1.1" id="Layer_1" xmlns="http://www.w3.org/2000/svg" xmlns:xlink="http://www.w3.org/1999/xlink" x="0px" y="0px"
	 width="100%" viewBox="0 0 1024 1024" enable-background="new 0 0 1024 1024" xml:space="preserve">
<path fill="#000000" opacity="1.000000" stroke="none" 
	d="
M458.778046,431.374207 
	C455.852875,431.014008 453.386261,430.625854 450.906342,430.363251 
	C437.249115,428.917175 429.481995,436.840149 430.928558,450.635956 
	C431.966187,460.531769 437.849915,466.971405 446.000793,471.689209 
	C455.516968,477.197205 466.154968,479.396271 476.745514,481.651245 
	C495.937500,485.737640 515.407593,488.685272 534.055115,495.029572 
	C547.705688,499.673798 560.533142,505.878021 571.141846,516.027100 
	C594.404480,538.281921 593.254517,577.564270 574.498291,599.419067 
	C561.366455,614.720154 544.559937,623.373108 525.489685,628.485718 
	C515.372437,631.198120 504.930939,632.568604 495.037445,636.239502 
	C487.053802,639.201843 479.684570,642.757141 475.492859,650.746460 
	C475.224396,651.258179 474.539337,651.551331 473.702759,652.223694 
	C470.521576,648.196533 471.320221,643.875671 472.273041,639.840210 
	C474.081940,632.178955 479.694489,627.396912 486.032776,623.446838 
	C498.419891,615.727417 512.396484,611.531372 525.670715,605.776428 
	C537.041382,600.846741 547.929871,595.294922 556.029297,585.377869 
	C569.134583,569.331604 569.003418,542.674133 548.206543,528.838867 
	C533.689087,519.181030 517.334839,515.085449 500.746338,511.328186 
	C481.780670,507.032532 462.387024,504.397064 444.125336,497.333832 
	C425.614746,490.174377 413.043060,477.378387 409.234985,457.513580 
	C405.284729,436.907196 413.416351,412.155853 438.844086,405.096222 
	C440.924744,404.518555 443.091644,403.955200 444.945465,402.903870 
	C459.074585,394.891052 471.638031,401.148315 484.225983,407.099884 
	C485.549927,407.725830 486.685638,408.807556 487.803680,409.796570 
	C489.171600,411.006622 489.677551,412.667084 489.039459,414.338013 
	C488.413940,415.976074 486.717957,415.986481 485.211182,416.119293 
	C482.830322,416.329193 480.220123,415.235077 477.755157,417.584869 
	C480.793274,421.890930 485.155701,418.102295 488.687012,419.397064 
	C489.050568,423.650299 486.188141,425.779846 483.292206,427.574005 
	C475.851562,432.183777 467.715210,433.037323 458.778046,431.374207 
z"/>
<path fill="#000000" opacity="1.000000" stroke="none" 
	d="
M574.197449,400.533691 
	C579.293884,402.322601 583.924622,404.282776 588.735168,405.572601 
	C607.250732,410.537231 616.300903,427.870636 617.241821,444.330566 
	C618.583984,467.811829 607.267334,483.962006 587.085266,494.639984 
	C580.283508,498.238739 572.963318,500.536438 565.635376,502.782654 
	C563.505981,503.435394 561.425049,503.697693 559.395569,502.385681 
	C550.375305,496.554291 540.550110,492.492798 530.359314,489.240784 
	C529.562012,488.986328 528.788696,488.660858 528.501709,487.625549 
	C529.286560,485.852325 531.020813,485.951233 532.598694,485.608521 
	C545.767151,482.748596 559.042297,480.285583 571.761475,475.674072 
	C578.589417,473.198486 584.749817,469.656891 589.389709,463.871643 
	C595.704773,455.997650 596.735046,444.731598 591.727173,436.746765 
	C588.322937,431.318848 583.529480,428.776703 576.947083,429.714874 
	C569.221497,430.816010 561.488525,432.516144 553.628906,431.293121 
	C546.216064,430.139587 539.579163,427.631165 536.269226,419.835205 
	C539.763367,417.208435 544.310059,422.097015 547.040039,417.601318 
	C545.849915,415.030792 543.578003,415.409424 541.478088,415.557831 
	C539.314880,415.710724 536.863220,416.317932 535.945618,413.653931 
	C535.040222,411.025391 536.810669,409.186951 538.806335,407.831085 
	C543.272339,404.796753 548.514648,403.519440 553.462280,401.571350 
	C560.129456,398.946167 566.832275,397.367035 574.197449,400.533691 
z"/>
<path fill="#000000" opacity="1.000000" stroke="none" 
	d="
M468.835785,508.967224 
	C476.598267,510.828369 483.960785,512.580383 491.281555,514.322449 
	C491.146454,516.677429 489.507324,516.636414 488.451630,517.218628 
	C485.981445,518.580811 483.315460,519.647522 481.017120,521.247925 
	C477.543701,523.666687 474.413330,526.492310 475.223541,531.441772 
	C475.992737,536.140564 479.684387,537.772034 483.490356,539.166748 
	C495.138641,543.435364 507.553986,544.060913 519.560852,546.639404 
	C527.237793,548.288025 534.782043,550.230957 541.653259,554.182495 
	C543.093750,555.010864 544.603455,555.790283 545.861023,556.852844 
	C551.554810,561.663513 557.540649,566.992859 556.278198,575.064819 
	C554.938232,583.633240 547.741638,588.323914 540.793579,593.494385 
	C540.261902,592.147278 539.895325,591.594727 539.835205,591.010681 
	C538.576965,578.789551 534.596558,573.932922 522.510132,570.261536 
	C510.072968,566.483704 497.044708,565.468994 484.482086,562.258057 
	C478.831940,560.813965 473.240295,559.177185 468.021362,556.529175 
	C448.968811,546.862183 447.186829,525.288879 459.792664,510.020691 
	C462.517456,506.720398 465.433777,508.285461 468.835785,508.967224 
z"/>
<path fill="#000000" opacity="1.000000" stroke="none" 
	d="
M522.309082,462.002380 
	C522.256409,468.667786 522.145569,474.833923 522.176147,480.999329 
	C522.195679,484.942657 521.269287,486.754333 516.574097,485.653137 
	C503.423370,482.568909 503.307007,482.770325 502.977875,469.246307 
	C502.605011,453.924896 502.631287,438.598328 501.873352,423.279449 
	C501.587036,417.492157 500.581177,412.325439 497.668335,407.169556 
	C491.250366,395.809265 497.113464,383.732819 509.785706,381.226532 
	C521.874146,378.835754 532.815918,390.547699 529.563416,402.419495 
	C529.168823,403.859650 528.933594,405.503113 528.071594,406.629150 
	C523.029114,413.216187 523.226624,420.815765 523.194580,428.535614 
	C523.148987,439.525696 522.628418,450.513794 522.309082,462.002380 
z"/>
<path fill="#000000" opacity="1.000000" stroke="none" 
	d="
M470.570221,574.670166 
	C471.938751,572.962036 473.073486,571.531067 474.242065,570.128235 
	C477.154175,566.632324 480.557007,565.146667 485.214539,566.669434 
	C488.983704,567.901733 492.938538,568.603394 496.844818,569.367493 
	C499.984131,569.981506 501.176025,571.780640 501.431763,574.892883 
	C501.685699,577.983459 500.376038,579.464050 497.663574,580.387451 
	C495.948639,580.971130 494.276489,581.791687 492.730682,582.742554 
	C484.031036,588.094055 483.653931,596.866699 491.697235,603.153320 
	C494.907135,605.662170 499.155518,606.687256 502.371155,610.561523 
	C496.167206,613.822144 490.381439,616.896790 484.557007,619.896362 
	C483.358643,620.513428 482.305176,619.646912 481.323273,619.069153 
	C469.310181,612.000488 457.340302,593.449768 470.570221,574.670166 
z"/>
<path fill="#000000" opacity="1.000000" stroke="none" 
	d="
M514.850464,606.042480 
	C505.824219,609.266663 505.822418,609.266663 505.762146,599.970520 
	C505.709320,591.823242 505.741760,583.674255 505.572052,575.529480 
	C505.501984,572.167725 506.842651,570.961121 510.076996,571.646484 
	C511.863007,572.024902 513.657104,572.388000 515.464050,572.639648 
	C518.830139,573.108337 520.342285,574.884094 520.240906,578.371033 
	C520.038086,585.350342 519.946960,592.337158 520.021301,599.318604 
	C520.059204,602.869568 518.542419,604.960388 514.850464,606.042480 
z"/>
<path fill="#000000" opacity="1.000000" stroke="none" 
	d="
M515.904419,542.119141 
	C504.343536,539.585205 504.343567,539.585205 504.032257,527.776733 
	C503.725708,516.146606 503.673218,516.372742 514.950806,518.988708 
	C519.928650,520.143372 521.970215,522.411926 521.385681,527.522766 
	C520.991028,530.973328 521.101257,534.515259 521.326538,537.994263 
	C521.580933,541.922668 519.958923,543.156799 515.904419,542.119141 
z"/>
<path fill="#000000" opacity="1.000000" stroke="none" 
	d="
M551.583618,649.067871 
	C550.856445,651.124023 549.801941,653.242676 548.320007,650.572571 
	C543.688843,642.228088 535.843750,638.558899 527.569092,635.337280 
	C527.112549,635.159485 526.660889,634.922913 526.275635,634.624878 
	C526.037476,634.440674 525.929321,634.088318 525.321045,633.076843 
	C530.354614,631.358276 535.229553,629.650391 540.138916,628.048279 
	C541.359741,627.649902 542.394409,628.474121 543.275391,629.219482 
	C549.293335,634.310913 553.003540,640.419189 551.583618,649.067871 
z"/>
<path fill="#000000" opacity="1.000000" stroke="none" 
	d="
M518.417969,650.078613 
	C518.343628,651.508118 518.379639,652.518311 518.187195,653.482910 
	C517.662598,656.112000 516.359253,658.205627 513.463745,658.486694 
	C510.616760,658.763000 508.704987,657.141907 507.768311,654.606323 
	C505.816803,649.323547 506.068207,643.674561 507.093903,638.450012 
	C507.906342,634.311584 512.856995,635.469543 516.043701,635.070496 
	C519.118103,634.685547 518.964355,637.713196 518.972351,639.742859 
	C518.985352,643.040649 518.626099,646.339844 518.417969,650.078613 
z"/>
</svg>